<svg xmlns="http://www.w3.org/2000/svg" width="27" height="32"><title>ic_home</title><desc>Created with Sketch.</desc><defs><filter id="a" width="200%" height="200%" x="-50%" y="-50%" filterUnits="objectBoundingBox"><feOffset dy="2" in="SourceAlpha" result="shadowOffsetOuter1"/><feGaussianBlur stdDeviation="2" in="shadowOffsetOuter1" result="shadowBlurOuter1"/><feColorMatrix values="0 0 0 0 0 0 0 0 0 0 0 0 0 0 0 0 0 0 0.05 0" in="shadowBlurOuter1" result="shadowMatrixOuter1"/><feMerge><feMergeNode in="shadowMatrixOuter1"/><feMergeNode in="SourceGraphic"/></feMerge></filter></defs><g fill="none"><g fill="#000"><g><g filter="url(#a)" transform="translate(-10 -15)"><g><g><path d="M31.66 23.86l-.9.7-1.44 1.1c-.2-.96-.75-1.8-1.53-2.34l2.77-2.14-.86-1.14c-.34-.47-.26-1.13.2-1.5l2.1 2.78c.3.4.4.9.34 1.4-.07.43-.3.85-.68 1.14zM22.87 33.55c3.1-1.62 5.85-2.08 6.54-.96.58.9-.4 2.63-2.3 4.4l1.82 2.94h1.22c.57.02 1.02.48 1.02 1.06h-3.7l-.66-1.06-1.04-1.7-.4-.66c.13-.24.22-.52.22-.82 0-.87-.7-1.58-1.56-1.58-.05 0-.1 0-.14 0l-1-1.63zM14.23 23.45c.16-.78.85-1.38 1.67-1.38.24 0 .46.05.66.14.62.27 1.05.9 1.05 1.6v8.23c0 .6.48 1.06 1.06 1.06.42 0 .78-.26.95-.62.02-.04.04-.07.05-.1l.97-2.45-1.9-6.45c-.02-.08-.04-.16-.05-.23-.7-2.53.54-5.17 2.86-6.25l4.44 1.57c.55.2.84.8.65 1.34l-1.12-.4c-.45-.16-.94.07-1.1.53-.15.45.08.94.52 1.1l1.16.42c-.2.55-.8.83-1.34.63l-1.22-.46c-.1.5.2 1 .68 1.18l2.34.87c1 .43 1.7 1.4 1.75 2.56 0 .04 0 .08 0 .12 0 .03 0 .05 0 .08 0 0 0-.02 0-.02h3.66V25.1c0-.4.5-.75.8-.93L33 24v3.53c0 1-.8 1.78-1.78 1.78H27.1c-.38 0-.73.06-1.07.14 0 0 .03 0 .04 0 0 0-.03 0-.05 0 0 0-.02 0-.03 0-1.85.47-3.25 2.07-3.44 4.04 0 .03 0 .07 0 .1-.02.1-.02.23-.02.34 0 1.1.38 2.12 1.02 2.92.05.05.1.1.15.17.14.2.2.43.2.67 0 .65-.5 1.17-1.13 1.17-.23 0-.44-.07-.62-.2l-2.32-1.38c-.32.18-.54.53-.54.93 0 .25.08.5.24.68l.96 1.06h1.24c.56.02 1.02.48 1.02 1.06H19.4c0-1-.8-1.8-1.8-1.8v-3.1c.83-.17 1.45-.9 1.45-1.78 0-.04 0-.08 0-.13-.1 0-.22.02-.33.02-.4 0-.78-.12-1.1-.32-.64-.38-1.06-1.07-1.06-1.87V23.8c0-.38-.3-.7-.68-.7-.36 0-.66.3-.68.67.47.32.78.87.78 1.5 0 1-.8 1.8-1.8 1.8V23.8c0-.1.02-.23.05-.35z"/></g></g></g></g></g></g></svg>