<svg xmlns="http://www.w3.org/2000/svg" width="27" height="27"><title>ic_onCampus</title><desc>Created with Sketch.</desc><defs><filter id="a" width="200%" height="200%" x="-50%" y="-50%" filterUnits="objectBoundingBox"><feOffset dy="2" in="SourceAlpha" result="shadowOffsetOuter1"/><feGaussianBlur stdDeviation="2" in="shadowOffsetOuter1" result="shadowBlurOuter1"/><feColorMatrix values="0 0 0 0 0 0 0 0 0 0 0 0 0 0 0 0 0 0 0.05 0" in="shadowBlurOuter1" result="shadowMatrixOuter1"/><feMerge><feMergeNode in="shadowMatrixOuter1"/><feMergeNode in="SourceGraphic"/></feMerge></filter></defs><g fill="none"><g fill="#000"><g><g filter="url(#a)" transform="translate(-93 -18)"><g><path d="M116 22v2h-5l-3.47 5H110v2h-1.54l3.7 8h-2.2l-.92-2h-8.66l-1.03 2H97.1l4.13-8H101c-.45 0-.83-.3-.96-.7l-3.17-9.46.95-.34c.52-.16 1.1.13 1.26.65l2.64 7.85h4.38l3.47-5H106v-2h10zm-12.5 9l-2.08 4h6.7l-1.86-4h-2.76z"/></g></g></g></g></g></svg>